<svg width="24" height="24" viewBox="0 0 24 24" fill="none" xmlns="http://www.w3.org/2000/svg">
<g clip-path="url(#clip0_1116_21058)">
<path d="M21 10.5469C19.7852 10.5469 18.7969 11.5352 18.7969 12.75V13.3204C18.546 13.2232 18.2771 13.1718 18 13.1718C17.4115 13.1718 16.8583 13.401 16.4422 13.8172L13.4422 16.8172C13.026 17.2333 12.7969 17.7865 12.7969 18.375V23.2969C12.7969 23.6852 13.1117 24 13.5 24H18.375C18.7633 24 19.0781 23.6852 19.0781 23.2969V21.5376L22.5578 18.0578C22.974 17.6417 23.2031 17.0885 23.2031 16.5V12.75C23.2031 11.5352 22.2148 10.5469 21 10.5469ZM21.7969 16.5C21.7969 16.7128 21.714 16.913 21.5635 17.0635L17.8778 20.7492C17.746 20.881 17.6719 21.0599 17.6719 21.2463V22.5938H14.2031V18.375C14.2031 18.1622 14.286 17.962 14.4365 17.8115L17.4366 14.8115C17.748 14.5 18.252 14.5 18.5634 14.8116C18.8749 15.123 18.8749 15.627 18.5634 15.9384L17.3741 17.1278C17.0995 17.4024 17.0995 17.8476 17.3741 18.1222C17.6487 18.3968 18.0939 18.3967 18.3685 18.1222L19.5578 16.9328C19.9739 16.5167 20.2031 15.9635 20.2031 15.375V12.75C20.2031 12.3106 20.5606 11.9531 21 11.9531C21.4394 11.9531 21.7969 12.3106 21.7969 12.75V16.5Z" fill="#006ED6"/>
<path d="M7.55784 13.8173C7.14173 13.401 6.58847 13.1718 6 13.1718C5.72297 13.1718 5.45405 13.2232 5.20327 13.3204L5.20312 12.75C5.20312 11.5352 4.21481 10.5469 3 10.5469C1.78519 10.5469 0.796875 11.5352 0.796875 12.75V16.5C0.796875 17.0885 1.02605 17.6417 1.4422 18.0578L4.92188 21.5376V23.2969C4.92188 23.6852 5.23669 24 5.625 24H10.5C10.8883 24 11.2031 23.6852 11.2031 23.2969V18.375C11.2031 17.7865 10.974 17.2333 10.5578 16.8172L7.55784 13.8173ZM6.12216 20.7491L2.43652 17.0634C2.28605 16.913 2.20312 16.7128 2.20312 16.5V12.75C2.20312 12.3106 2.56059 11.9531 3 11.9531C3.43941 11.9531 3.79688 12.3106 3.79688 12.7502V15.375C3.79688 15.9635 4.02609 16.5167 4.4422 16.9328L5.63152 18.1222C5.90606 18.3968 6.35128 18.3967 6.62588 18.1222C6.90047 17.8476 6.90047 17.4024 6.62588 17.1278L5.43656 15.9384C5.12213 15.624 5.12958 15.1185 5.43661 14.8115C5.74809 14.5 6.252 14.5 6.56348 14.8115L9.56348 17.8115C9.71395 17.962 9.79688 18.1622 9.79688 18.375V22.5938H6.32812V21.2463C6.32812 21.0598 6.25406 20.881 6.12216 20.7491Z" fill="#006ED6"/>
<path d="M18.2905 8.18044C19.062 6.95367 19.4531 5.69958 19.4531 4.45312C19.4531 1.99767 17.4555 0 15 0C13.8695 0 12.8128 0.415031 12 1.16011C11.1872 0.415031 10.1305 0 9 0C6.54455 0 4.54688 1.99767 4.54688 4.45312C4.54688 5.69958 4.93805 6.95367 5.70947 8.18044C6.30619 9.12942 7.13208 10.0648 8.16408 10.9607C9.89723 12.4652 11.61 13.3406 11.6821 13.3772C11.782 13.4278 11.891 13.4531 12 13.4531C12.109 13.4531 12.218 13.4278 12.3179 13.3771C12.39 13.3406 14.1028 12.4651 15.8359 10.9606C16.868 10.0648 17.6938 9.12942 18.2905 8.18044ZM12 11.9489C10.7108 11.2178 5.95312 8.26069 5.95312 4.45312C5.95312 2.77308 7.31995 1.40625 9 1.40625C9.96727 1.40625 10.8558 1.85058 11.4378 2.62538C11.5706 2.80219 11.7788 2.9062 12 2.9062C12.2212 2.9062 12.4294 2.80219 12.5622 2.62538C13.1442 1.85058 14.0327 1.40625 15 1.40625C16.68 1.40625 18.0469 2.77308 18.0469 4.45312C18.0469 8.26092 13.2885 11.2182 12 11.9489Z" fill="#F04F0A"/>
</g>
<defs>
<clipPath id="clip0_1116_21058">
<rect width="24" height="24" fill="white"/>
</clipPath>
</defs>
</svg> 