<svg viewBox="0 0 90 24" fill="none" xmlns="http://www.w3.org/2000/svg">
  <path fill-rule="evenodd" clip-rule="evenodd" d="M10.8128 0.5H3.80434C3.32469 0.5 2.9168 0.831724 2.84188 1.28258L0.00733153 18.3902C-0.0489289 18.7279 0.225771 19.032 0.585436 19.032H3.93121C4.41086 19.032 4.81875 18.7006 4.89366 18.2489L5.65806 13.6345C5.73183 13.1828 6.14058 12.8511 6.61937 12.8511H8.83792C13.4544 12.8511 16.1188 10.7244 16.8148 6.51038C17.1283 4.6665 16.8281 3.21801 15.921 2.20343C14.925 1.0894 13.1582 0.5 10.8128 0.5ZM11.6206 6.7485C11.2374 9.14243 9.31589 9.14243 7.45814 9.14243H6.40039L7.1424 4.67153C7.1866 4.40129 7.43231 4.20236 7.71935 4.20236H8.20417C9.46974 4.20236 10.6636 4.20236 11.2804 4.88904C11.6484 5.29864 11.7609 5.90744 11.6206 6.7485Z" fill="#28356A"/>
  <path fill-rule="evenodd" clip-rule="evenodd" d="M31.9459 6.54203H28.5898C28.3039 6.54203 28.0568 6.74095 28.0129 7.0112L27.8642 7.90472L27.6297 7.58092C26.9031 6.577 25.2828 6.24146 23.6659 6.24146C19.957 6.24146 16.7895 8.91547 16.1726 12.6664C15.852 14.5373 16.3078 16.3265 17.423 17.5742C18.4457 18.7213 19.9091 19.1995 21.65 19.1995C24.6384 19.1995 26.2952 17.3703 26.2952 17.3703L26.1456 18.2581C26.0894 18.5975 26.3641 18.9019 26.7217 18.9019H29.7446C30.2254 18.9019 30.6313 18.5702 30.707 18.1185L32.5209 7.18389C32.5783 6.84725 32.3044 6.54203 31.9459 6.54203ZM27.2694 12.76C26.9456 14.5851 25.424 15.8103 23.483 15.8103C22.5085 15.8103 21.7298 15.5128 21.2295 14.949C20.7335 14.3892 20.5452 13.5921 20.7027 12.7043C21.0053 10.8949 22.5525 9.62944 24.4639 9.62944C25.4169 9.62944 26.1916 9.9311 26.7019 10.4995C27.2132 11.0741 27.4161 11.8761 27.2694 12.76Z" fill="#28356A"/>
  <path fill-rule="evenodd" clip-rule="evenodd" d="M49.5567 6.81567H46.1839C45.8621 6.81567 45.5599 6.96787 45.3776 7.22254L40.7261 13.7447L38.7544 7.47694C38.6304 7.08482 38.2503 6.81567 37.8198 6.81567H34.5058C34.1028 6.81567 33.8233 7.1903 33.9513 7.55126L37.6662 17.9287L34.1737 22.622C33.899 22.9917 34.1757 23.5 34.6502 23.5H38.0187C38.3384 23.5 38.6375 23.3516 38.819 23.1021L50.036 7.6887C50.3047 7.32009 50.0288 6.81567 49.5567 6.81567Z" fill="#28356A"/>
  <path fill-rule="evenodd" clip-rule="evenodd" d="M60.7969 0.5H53.7876C53.3091 0.5 52.9012 0.831724 52.8263 1.28258L49.9917 18.3902C49.9354 18.7279 50.2101 19.032 50.5678 19.032H54.1647C54.4986 19.032 54.7845 18.8 54.8367 18.4839L55.6413 13.6345C55.7151 13.1828 56.1241 12.8511 56.6026 12.8511H58.8203C63.4377 12.8511 66.1011 10.7244 66.7981 6.51038C67.1127 4.6665 66.8104 3.21801 65.9034 2.20343C64.9082 1.0894 63.1426 0.5 60.7969 0.5ZM61.6038 6.7485C61.2214 9.14243 59.3 9.14243 57.4411 9.14243H56.3848L57.1276 4.67153C57.1716 4.40129 57.4155 4.20236 57.7034 4.20236H58.1883C59.4527 4.20236 60.6476 4.20236 61.2645 4.88904C61.6325 5.29864 61.7442 5.90744 61.6038 6.7485Z" fill="#298FC2"/>
  <path fill-rule="evenodd" clip-rule="evenodd" d="M81.9277 6.54203H78.5736C78.2857 6.54203 78.0409 6.74095 77.9978 7.0112L77.8491 7.90472L77.6135 7.58092C76.887 6.577 75.2678 6.24146 73.6506 6.24146C69.942 6.24146 66.7756 8.91547 66.1587 12.6664C65.839 14.5373 66.2928 16.3265 67.4077 17.5742C68.4327 18.7213 69.8937 19.1995 71.6349 19.1995C74.6231 19.1995 76.2802 17.3703 76.2802 17.3703L76.1306 18.2581C76.0744 18.5975 76.3488 18.9019 76.7087 18.9019H79.7307C80.2092 18.9019 80.6171 18.5702 80.692 18.1185L82.5067 7.18389C82.5621 6.84725 82.2874 6.54203 81.9277 6.54203ZM77.2513 12.76C76.9295 14.5851 75.4056 15.8103 73.4646 15.8103C72.4921 15.8103 71.7113 15.5128 71.211 14.949C70.7153 14.3892 70.5287 13.5921 70.6843 12.7043C70.9889 10.8949 72.534 9.62944 74.4454 9.62944C75.3984 9.62944 76.1731 9.9311 76.6835 10.4995C77.1967 11.0741 77.3997 11.8761 77.2513 12.76Z" fill="#298FC2"/>
  <path fill-rule="evenodd" clip-rule="evenodd" d="M85.6026 0.970262L82.7261 18.391C82.6698 18.7287 82.9442 19.0328 83.3019 19.0328H86.1939C86.6747 19.0328 87.0823 18.7014 87.156 18.2497L89.9926 1.14295C90.0491 0.805219 89.7744 0.5 89.4168 0.5H86.1786C85.8928 0.50082 85.6468 0.700018 85.6026 0.970262Z" fill="#298FC2"/>
</svg>