<svg viewBox="0 0 118 30" fill="none" xmlns="http://www.w3.org/2000/svg">
  <path d="M15.4909 0C23.7736 0 30.4818 6.71229 30.4818 15C30.4818 23.2877 23.7736 30 15.4909 30C7.20822 30 0.5 23.2877 0.5 15C0.5 6.71229 7.20822 0 15.4909 0Z" fill="url(#paint0_linear_4697_11841)"/>
  <path d="M15.4909 0C7.20822 0 0.5 6.71229 0.5 15C0.5 23.2877 7.21777 30 15.4909 30C23.7736 30 30.4818 23.2877 30.4818 15C30.4818 6.71229 23.7736 0 15.4909 0ZM15.4909 28.3482C8.12428 28.3482 2.15082 22.3711 2.15082 15C2.15082 7.6289 8.12428 1.65181 15.4909 1.65181C22.8576 1.65181 28.831 7.6289 28.831 15C28.831 22.3711 22.8576 28.3482 15.4909 28.3482Z" fill="#8CBF5C"/>
  <path d="M20.728 11.5914L17.3882 16.5468H20.728V11.5914ZM21.9876 9.5863V16.5564H23.4571V17.8167H21.9876V20.4233H20.7185V17.8167H15.995V16.4609L20.7566 9.59585L21.9876 9.5863ZM14.6019 19.1535V20.4138H7.52148V20.3756C7.58828 19.1916 7.89363 18.3228 8.48526 17.6067C8.96237 17.0147 9.54445 16.5755 10.7372 15.8307C10.7372 15.8307 11.1571 15.5634 11.2811 15.487C11.9205 15.0764 12.3308 14.7518 12.6648 14.3794C13.0751 13.902 13.285 13.3864 13.285 12.7754C13.285 11.5914 12.4453 10.7798 11.243 10.7798C9.84026 10.7798 9.12459 11.8492 9.08642 13.4437V13.4724H7.82684V13.4437L7.8173 13.1573C7.8173 11.0185 9.21047 9.5863 11.3098 9.5863C13.3614 9.5863 14.6973 10.8276 14.6973 12.7467C14.6973 13.7302 14.3442 14.5226 13.6667 15.2197C13.161 15.7543 12.6361 16.1076 11.4624 16.8237C11.4434 16.8333 11.4338 16.8428 11.4147 16.8524C11.3575 16.881 11.0998 17.0338 11.033 17.0815C10.47 17.4157 10.1265 17.6544 9.82117 17.9409C9.44903 18.2941 9.20093 18.6856 9.08642 19.1439H14.6019V19.1535Z" fill="white"/>
  <path d="M45.0156 7.90076H51.0733C52.5791 7.90076 53.7605 8.26004 54.6292 8.967C55.4979 9.68556 55.9381 10.7402 55.9381 12.1542C55.9381 13.487 55.5327 14.5416 54.7219 15.3181C53.9111 16.0946 52.8107 16.4887 51.4092 16.4887H47.4711V21.8663H45.0156V7.90076ZM47.4711 9.95213V14.53H50.888C52.6718 14.53 53.552 13.7651 53.552 12.2353C53.552 10.717 52.5907 9.96372 50.668 9.96372H47.4711V9.95213Z" fill="#0D0E0F"/>
  <path d="M63.2117 11.5521V13.6962C62.8179 13.6614 62.5631 13.6382 62.4241 13.6382C60.4782 13.6382 59.5053 14.9015 59.5053 17.4281V21.8785H57.293V11.7491H59.3894V13.7657C60.1076 12.2591 61.2427 11.5057 62.7831 11.5057L63.2117 11.5521Z" fill="#0D0E0F"/>
  <path d="M66.8624 7.84314V10.0452H64.627V7.84314H66.8624ZM66.8624 11.7489V21.8782H64.627V11.7489H66.8624Z" fill="#0D0E0F"/>
  <path d="M68.4473 11.749H70.8796L73.4741 19.5373L75.9644 11.749H78.2809L74.6556 21.9016H72.1421L68.4473 11.749Z" fill="#0D0E0F"/>
  <path d="M79.0436 14.8784C79.2753 12.5837 80.7579 11.4479 83.4798 11.4479C84.7423 11.4479 85.7616 11.6913 86.5145 12.1896C87.2673 12.688 87.638 13.4645 87.638 14.5075V19.6418C87.638 19.9315 87.6727 20.1285 87.7422 20.2328C87.8117 20.3371 87.9507 20.3951 88.1592 20.3951C88.3214 20.3951 88.4835 20.3835 88.6688 20.3603V21.9365C88.0897 22.0756 87.6148 22.1567 87.221 22.1567C86.2712 22.1567 85.7153 21.7511 85.5763 20.9398C84.7307 21.7511 83.5377 22.1567 82.0204 22.1567C80.978 22.1567 80.144 21.8902 79.5301 21.3454C78.9162 20.8007 78.6035 20.0706 78.6035 19.1318C78.6035 18.8421 78.6383 18.5755 78.6962 18.3321C78.7657 18.0888 78.8352 17.8685 78.9278 17.6831C79.0089 17.4977 79.1479 17.3354 79.3448 17.1732C79.5301 17.0109 79.6923 16.8834 79.8197 16.7791C79.9471 16.6748 80.144 16.5821 80.4336 16.4894C80.7115 16.3967 80.92 16.3271 81.059 16.2808C81.198 16.2344 81.4297 16.188 81.7771 16.1301C82.113 16.0837 82.3447 16.0374 82.4489 16.0258C82.5648 16.0026 82.7964 15.9794 83.1439 15.9331C83.9431 15.8288 84.4875 15.7361 84.7771 15.6665C85.0666 15.597 85.2635 15.4811 85.3678 15.342C85.4604 15.2377 85.5068 14.9943 85.5068 14.6119C85.5068 13.592 84.8118 13.082 83.4219 13.082C82.6922 13.082 82.1594 13.2211 81.8119 13.4992C81.476 13.7774 81.2559 14.241 81.1633 14.89H79.0436V14.8784ZM85.472 16.8023C85.2983 16.895 85.1014 16.9761 84.8813 17.0457C84.6612 17.1152 84.4759 17.1616 84.3369 17.1848C84.1979 17.2079 83.9894 17.2311 83.6883 17.2775C83.3987 17.3122 83.2018 17.347 83.1092 17.3586C82.8312 17.3934 82.6227 17.4397 82.4605 17.4629C82.2984 17.4977 82.113 17.5556 81.8814 17.6252C81.6497 17.7063 81.476 17.799 81.3486 17.9149C81.2212 18.0308 81.1169 18.1815 81.0243 18.3669C80.9316 18.5523 80.8853 18.7841 80.8853 19.0391C80.8853 19.5259 81.0474 19.8967 81.3602 20.1517C81.6845 20.4183 82.1246 20.5458 82.7038 20.5458C83.6999 20.5458 84.4643 20.2792 84.9971 19.7461C85.2983 19.4447 85.4489 18.8653 85.4489 17.996V16.8023H85.472Z" fill="#0D0E0F"/>
  <path d="M95.0862 11.749V13.3831H93.0476V18.7144C93.0476 19.0273 93.0592 19.2475 93.0708 19.375C93.0824 19.5025 93.1171 19.6416 93.1866 19.7922C93.2561 19.9429 93.3719 20.0472 93.5341 20.0936C93.6962 20.1515 93.9279 20.1747 94.2059 20.1747C94.5765 20.1747 94.8661 20.1631 95.0862 20.1399V21.9015C94.646 21.9479 94.1364 21.9827 93.5804 21.9827C93.1866 21.9827 92.8391 21.9479 92.5496 21.89C92.26 21.832 92.0052 21.7625 91.8083 21.6813C91.6114 21.6002 91.4492 21.4727 91.3218 21.2757C91.1944 21.0903 91.0901 20.928 91.0207 20.8005C90.9512 20.673 90.8932 20.4528 90.8585 20.1399C90.8237 19.827 90.8122 19.5836 90.8122 19.4214C90.8122 19.2591 90.8122 18.9694 90.8122 18.5637C90.8122 18.5174 90.8122 18.471 90.8122 18.4362C90.8122 18.4015 90.8122 18.3667 90.8122 18.3203C90.8122 18.274 90.8122 18.2276 90.8122 18.1929V13.3831H89.1211V11.749H90.8122V8.70093H93.0476V11.749H95.0862Z" fill="#0D0E0F"/>
  <path d="M106.841 19.8965V21.8783H97.4707C97.4823 21.2641 97.5634 20.6962 97.7255 20.1862C97.8877 19.6763 98.0614 19.2359 98.2699 18.8766C98.4668 18.5173 98.768 18.1464 99.1734 17.7756C99.5672 17.4047 99.9262 17.0918 100.251 16.8484C100.575 16.605 101.015 16.2921 101.571 15.9212C101.606 15.898 101.803 15.7706 102.15 15.5388C102.498 15.307 102.706 15.1679 102.787 15.1099C102.868 15.052 103.042 14.9129 103.32 14.6927C103.598 14.4725 103.772 14.2987 103.864 14.1712C103.945 14.0437 104.061 13.8583 104.212 13.6381C104.362 13.4179 104.467 13.1861 104.513 12.9659C104.559 12.7341 104.594 12.4907 104.594 12.2357C104.594 11.5172 104.397 10.9493 103.992 10.5436C103.598 10.1264 103.054 9.92937 102.37 9.92937C101.976 9.92937 101.64 9.98732 101.351 10.1148C101.061 10.2423 100.841 10.4045 100.679 10.59C100.517 10.787 100.378 11.042 100.274 11.3433C100.169 11.6562 100.1 11.946 100.065 12.2125C100.03 12.4907 100.007 12.8036 99.9957 13.1745H97.8182V12.8268C97.8182 11.3433 98.2352 10.1728 99.0691 9.30353C99.9031 8.4343 101.027 7.9939 102.428 7.9939C103.76 7.9939 104.837 8.36477 105.648 9.11809C106.459 9.87142 106.864 10.8681 106.864 12.1082C106.864 12.6066 106.783 13.0818 106.633 13.5222C106.47 13.9626 106.308 14.3218 106.135 14.6C105.961 14.8782 105.648 15.1911 105.219 15.5619C104.791 15.9328 104.467 16.1878 104.258 16.3269C104.05 16.4659 103.667 16.7325 103.1 17.115C101.467 18.1696 100.482 19.0968 100.158 19.8849H106.841V19.8965Z" fill="#0D0E0F"/>
  <path d="M117.501 16.7325V18.6216H115.752V21.8783H113.597L113.574 18.6216H107.748V16.408L113.632 8.02869H115.752V16.7441L117.501 16.7325ZM113.609 16.7325V10.787L109.59 16.7325H113.609Z" fill="#0D0E0F"/>
  <defs>
    <linearGradient id="paint0_linear_4697_11841" x1="0.5" y1="15" x2="30.4818" y2="15" gradientUnits="userSpaceOnUse">
      <stop stop-color="#313131"/>
      <stop offset="1" stop-color="#0E0F0F"/>
    </linearGradient>
  </defs>
</svg>