<svg width="34" height="34" viewBox="0 0 34 34" fill="none" xmlns="http://www.w3.org/2000/svg">
<path d="M5.57143 1H28.4286C30.9611 1 33 3.03886 33 5.57143V28.4286C33 30.9611 30.9611 33 28.4286 33H5.57143C3.03886 33 1 30.9611 1 28.4286V5.57143C1 3.03886 3.03886 1 5.57143 1Z" stroke="#1D1D1E" stroke-linecap="round" stroke-linejoin="round"/>
<path d="M7.64307 7.64282H9.85735" stroke="#1D1D1E" stroke-linecap="round" stroke-linejoin="round"/>
<path d="M12.0714 9.85753C11.4841 9.85753 10.9209 9.62424 10.5056 9.20898C10.0904 8.79372 9.85707 8.23051 9.85707 7.64324C9.85707 7.05598 10.0904 6.49276 10.5056 6.0775C10.9209 5.66225 11.4841 5.42896 12.0714 5.42896C12.3621 5.42895 12.6501 5.48623 12.9187 5.59751C13.1874 5.70879 13.4315 5.87189 13.6371 6.0775C13.8427 6.28312 14.0058 6.52722 14.1171 6.79587C14.2284 7.06452 14.2856 7.35246 14.2856 7.64324C14.2856 7.93402 14.2284 8.22196 14.1171 8.49061C14.0058 8.75926 13.8427 9.00336 13.6371 9.20898C13.4315 9.41459 13.1874 9.5777 12.9187 9.68897C12.6501 9.80025 12.3621 9.85753 12.0714 9.85753Z" stroke="#1D1D1E" stroke-linecap="round" stroke-linejoin="round"/>
<path d="M14.2856 7.64287L25.3571 7.64282" stroke="#1D1D1E" stroke-linecap="round" stroke-linejoin="round"/>
<path d="M25.3573 16.5H23.1431" stroke="#1D1D1E" stroke-linecap="round" stroke-linejoin="round"/>
<path d="M20.9286 18.7142C21.5159 18.7142 22.0791 18.4809 22.4944 18.0657C22.9096 17.6504 23.1429 17.0872 23.1429 16.4999C23.1429 15.9127 22.9096 15.3495 22.4944 14.9342C22.0791 14.5189 21.5159 14.2856 20.9286 14.2856C20.3414 14.2856 19.7782 14.5189 19.3629 14.9342C18.9476 15.3495 18.7144 15.9127 18.7144 16.4999C18.7144 17.0872 18.9476 17.6504 19.3629 18.0657C19.7782 18.4809 20.3414 18.7142 20.9286 18.7142Z" stroke="#1D1D1E" stroke-linecap="round" stroke-linejoin="round"/>
<path d="M18.7145 16.5L7.64307 16.5" stroke="#1D1D1E" stroke-linecap="round" stroke-linejoin="round"/>
<path d="M7.64307 25.3572H9.85735" stroke="#1D1D1E" stroke-linecap="round" stroke-linejoin="round"/>
<path d="M12.0714 27.5714C11.4841 27.5714 10.9209 27.3381 10.5056 26.9228C10.0904 26.5076 9.85707 25.9444 9.85707 25.3571C9.85707 24.7698 10.0904 24.2066 10.5056 23.7914C10.9209 23.3761 11.4841 23.1428 12.0714 23.1428C12.3621 23.1428 12.6501 23.2001 12.9187 23.3114C13.1874 23.4227 13.4315 23.5858 13.6371 23.7914C13.8427 23.997 14.0058 24.2411 14.1171 24.5097C14.2284 24.7784 14.2856 25.0663 14.2856 25.3571C14.2856 25.6479 14.2284 25.9358 14.1171 26.2045C14.0058 26.4731 13.8427 26.7172 13.6371 26.9228C13.4315 27.1285 13.1874 27.2916 12.9187 27.4028C12.6501 27.5141 12.3621 27.5714 12.0714 27.5714Z" stroke="#1D1D1E" stroke-linecap="round" stroke-linejoin="round"/>
<path d="M14.2856 25.3572L25.3571 25.3572" stroke="#1D1D1E" stroke-linecap="round" stroke-linejoin="round"/>
</svg>
